<svg xmlns="http://www.w3.org/2000/svg" viewBox="0 0 660 460" width="660" height="460" role="img" aria-labelledby="t" font-family="system-ui, -apple-system, 'Segoe UI', Roboto, sans-serif" xmlns:c2pa="http://c2pa.org/manifest"><metadata><c2pa:manifest>AAAWgmp1bWIAAAAeanVtZGMycGEAEQAQgAAAqgA4m3EDYzJwYQAAABZcanVtYgAAAEdqdW1kYzJtYQARABCAAACqADibcQN1cm46YzJwYTphMTg5MmMwZS0yNDI1LTQ5NzEtODIwYS01Yjg4M2ZkNTVjYzMAAAADl2p1bWIAAAApanVtZGMyYXMAEQAQgAAAqgA4m3EDYzJwYS5hc3NlcnRpb25zAAAAALxqdW1iAAAARGp1bWRjYm9yABEAEIAAAKoAOJtxE2MycGEuaW5ncmVkaWVudC52MwAAAAAYYzJzaOEB+9goI1lzq0MZzfTbICUAAABwY2JvcqNpZGM6Zm9ybWF0bWltYWdlL3N2Zyt4bWxqaW5zdGFuY2VJRHgseG1wOmlpZDpmNjAwODZlYi1kYmNmLTQ0Y2QtYjI3MS02MzYyYmJmOTE4NjJscmVsYXRpb25zaGlwaHBhcmVudE9mAAAB4mp1bWIAAABBanVtZGNib3IAEQAQgAAAqgA4m3ETYzJwYS5hY3Rpb25zLnYyAAAAABhjMnNowYcxPkTod4bVwjEjR/V4DwAAAZljYm9yomdhY3Rpb25zgqJmYWN0aW9ua2MycGEub3BlbmVkanBhcmFtZXRlcnOha2luZ3JlZGllbnRzgaJjdXJseC1zZWxmI2p1bWJmPWMycGEuYXNzZXJ0aW9ucy9jMnBhLmluZ3JlZGllbnQudjNkaGFzaFggHWMtQx0LbKPpCMY+F2FkLR6UQA5+OYVJOSiMLPQ6RF+kZmFjdGlvbngdY29tLmFudGhyb3BpYy5jbGF1ZGUucHJvdmlkZWRqcGFyYW1ldGVyc6F4H2NvbS5hbnRocm9waWMub3JpZ2luLWNvbmZpZGVuY2VndW5rbm93bmtkZXNjcmlwdGlvbnhmQ2xhdWRlIHByb3ZpZGVkIHRoaXMgZmlsZSBhdCB0aGUgcmVxdWVzdCBvZiBhIHVzZXIgYW5kIG1heSBoYXZlIGNyZWF0ZWQgb3IgbW9kaWZpZWQgdGhlIGZpbGUgY29udGVudHMubXNvZnR3YXJlQWdlbnShZG5hbWVmQ2xhdWRlcmFsbEFjdGlvbnNJbmNsdWRlZPUAAADIanVtYgAAAEBqdW1kY2JvcgARABCAAACqADibcRNjMnBhLmhhc2guZGF0YQAAAAAYYzJzaH//nVXQpi4jHNXspJBcrsIAAACAY2JvcqVjYWxnZnNoYTI1NmNwYWRNAAAAAAAAAAAAAAAAAGRoYXNoWCBjm8Vn0MKMCJMWRqK/6IU63JC4T+Rs2A8qTFXDyR28h2RuYW1lbmp1bWJmIG1hbmlmZXN0amV4Y2x1c2lvbnOBomVzdGFydBj8Zmxlbmd0aBkeBAAAAj5qdW1iAAAAJ2p1bWRjMmNsABEAEIAAAKoAOJtxA2MycGEuY2xhaW0udjIAAAACD2Nib3KlY2FsZ2ZzaGEyNTZpc2lnbmF0dXJleE1zZWxmI2p1bWJmPS9jMnBhL3VybjpjMnBhOmExODkyYzBlLTI0MjUtNDk3MS04MjBhLTViODgzZmQ1NWNjMy9jMnBhLnNpZ25hdHVyZWppbnN0YW5jZUlEeCx4bXA6aWlkOjg0ZjVhYTQ5LWYzODctNDJmZS1hNjkxLWFhNzgyZWVjODVjN3JjcmVhdGVkX2Fzc2VydGlvbnODomN1cmx4LXNlbGYjanVtYmY9YzJwYS5hc3NlcnRpb25zL2MycGEuaW5ncmVkaWVudC52M2RoYXNoWCAdYy1DHQtso+kIxj4XYWQtHpRADn45hUk5KIws9DpEX6JjdXJseCpzZWxmI2p1bWJmPWMycGEuYXNzZXJ0aW9ucy9jMnBhLmFjdGlvbnMudjJkaGFzaFggtmxHhLs4uZsiwvIllDvISBqjb/y31vFU5y6Wn0ZGloOiY3VybHgpc2VsZiNqdW1iZj1jMnBhLmFzc2VydGlvbnMvYzJwYS5oYXNoLmRhdGFkaGFzaFggIXOXRzE5vWxYGwVASSQx3kd5csTTvOdFjhizOyCZE7d0Y2xhaW1fZ2VuZXJhdG9yX2luZm+jZG5hbWVvQW50aHJvcGljIEZpbGVzZ3ZlcnNpb25lMS4wLjBrc3BlY1ZlcnNpb25lMi40LjAAABA4anVtYgAAAChqdW1kYzJjcwARABCAAACqADibcQNjMnBhLnNpZ25hdHVyZQAAABAIY2JvctKEWQISogEmGCFZAgowggIGMIIBjaADAgECAhRA5aAK7sI50L64g/oGQgU9Z1UTADAKBggqhkjOPQQDAzBJMRcwFQYDVQQKEw5BbnRocm9waWMsIFBCQzEuMCwGA1UEAxMlQW50aHJvcGljIENvbnRlbnQgQ3JlZGVudGlhbHMgUm9vdCBDQTAeFw0yNjA4MDcxODQzNTZaFw0yODA4MDYxOTQzNTZaMEQxFzAVBgNVBAoTDkFudGhyb3BpYywgUEJDMSkwJwYDVQQDEyBBbnRocm9waWMgQ2xhdWRlIENvbnRlbnQgU2lnbmluZzBZMBMGByqGSM49AgEGCCqGSM49AwEHA0IABJh6CmvLUBgFFNU0vUKlOVtE6djd17L5SuwX0LemFisBM3dkd/3cyjxFA3Qo5S46fX0/ihY0VZ7mfb9KF703t5OjWDBWMA4GA1UdDwEB/wQEAwIHgDAVBgNVHSUEDjAMBgorBgEEAYPoXgIBMAwGA1UdEwEB/wQCMAAwHwYDVR0jBBgwFoAUzlHiBIFOZFsj+OPEz5o+nMHXXMIwCgYIKoZIzj0EAwMDZwAwZAIwMXMdFJ4BetLLVY7ORuE9noqbbAZOZn/aArXyTwFAZfKrPzxF2vPoJNf1+UCdg1XGAjBwX1zd9WGqYkqmL5SFqw1QySjr1zJfpJM9+1rdDwSPLMOPOjKuiXjoU/pUUeG9RwmhY3BhZFkNngAAAAAAAAAAAAAAAAAAAAAAAAAAAAAAAAAAAAAAAAAAAAAAAAAAAAAAAAAAAAAAAAAAAAAAAAAAAAAAAAAAAAAAAAAAAAAAAAAAAAAAAAAAAAAAAAAAAAAAAAAAAAAAAAAAAAAAAAAAAAAAAAAAAAAAAAAAAAAAAAAAAAAAAAAAAAAAAAAAAAAAAAAAAAAAAAAAAAAAAAAAAAAAAAAAAAAAAAAAAAAAAAAAAAAAAAAAAAAAAAAAAAAAAAAAAAAAAAAAAAAAAAAAAAAAAAAAAAAAAAAAAAAAAAAAAAAAAAAAAAAAAAAAAAAAAAAAAAAAAAAAAAAAAAAAAAAAAAAAAAAAAAAAAAAAAAAAAAAAAAAAAAAAAAAAAAAAAAAAAAAAAAAAAAAAAAAAAAAAAAAAAAAAAAAAAAAAAAAAAAAAAAAAAAAAAAAAAAAAAAAAAAAAAAAAAAAAAAAAAAAAAAAAAAAAAAAAAAAAAAAAAAAAAAAAAAAAAAAAAAAAAAAAAAAAAAAAAAAAAAAAAAAAAAAAAAAAAAAAAAAAAAAAAAAAAAAAAAAAAAAAAAAAAAAAAAAAAAAAAAAAAAAAAAAAAAAAAAAAAAAAAAAAAAAAAAAAAAAAAAAAAAAAAAAAAAAAAAAAAAAAAAAAAAAAAAAAAAAAAAAAAAAAAAAAAAAAAAAAAAAAAAAAAAAAAAAAAAAAAAAAAAAAAAAAAAAAAAAAAAAAAAAAAAAAAAAAAAAAAAAAAAAAAAAAAAAAAAAAAAAAAAAAAAAAAAAAAAAAAAAAAAAAAAAAAAAAAAAAAAAAAAAAAAAAAAAAAAAAAAAAAAAAAAAAAAAAAAAAAAAAAAAAAAAAAAAAAAAAAAAAAAAAAAAAAAAAAAAAAAAAAAAAAAAAAAAAAAAAAAAAAAAAAAAAAAAAAAAAAAAAAAAAAAAAAAAAAAAAAAAAAAAAAAAAAAAAAAAAAAAAAAAAAAAAAAAAAAAAAAAAAAAAAAAAAAAAAAAAAAAAAAAAAAAAAAAAAAAAAAAAAAAAAAAAAAAAAAAAAAAAAAAAAAAAAAAAAAAAAAAAAAAAAAAAAAAAAAAAAAAAAAAAAAAAAAAAAAAAAAAAAAAAAAAAAAAAAAAAAAAAAAAAAAAAAAAAAAAAAAAAAAAAAAAAAAAAAAAAAAAAAAAAAAAAAAAAAAAAAAAAAAAAAAAAAAAAAAAAAAAAAAAAAAAAAAAAAAAAAAAAAAAAAAAAAAAAAAAAAAAAAAAAAAAAAAAAAAAAAAAAAAAAAAAAAAAAAAAAAAAAAAAAAAAAAAAAAAAAAAAAAAAAAAAAAAAAAAAAAAAAAAAAAAAAAAAAAAAAAAAAAAAAAAAAAAAAAAAAAAAAAAAAAAAAAAAAAAAAAAAAAAAAAAAAAAAAAAAAAAAAAAAAAAAAAAAAAAAAAAAAAAAAAAAAAAAAAAAAAAAAAAAAAAAAAAAAAAAAAAAAAAAAAAAAAAAAAAAAAAAAAAAAAAAAAAAAAAAAAAAAAAAAAAAAAAAAAAAAAAAAAAAAAAAAAAAAAAAAAAAAAAAAAAAAAAAAAAAAAAAAAAAAAAAAAAAAAAAAAAAAAAAAAAAAAAAAAAAAAAAAAAAAAAAAAAAAAAAAAAAAAAAAAAAAAAAAAAAAAAAAAAAAAAAAAAAAAAAAAAAAAAAAAAAAAAAAAAAAAAAAAAAAAAAAAAAAAAAAAAAAAAAAAAAAAAAAAAAAAAAAAAAAAAAAAAAAAAAAAAAAAAAAAAAAAAAAAAAAAAAAAAAAAAAAAAAAAAAAAAAAAAAAAAAAAAAAAAAAAAAAAAAAAAAAAAAAAAAAAAAAAAAAAAAAAAAAAAAAAAAAAAAAAAAAAAAAAAAAAAAAAAAAAAAAAAAAAAAAAAAAAAAAAAAAAAAAAAAAAAAAAAAAAAAAAAAAAAAAAAAAAAAAAAAAAAAAAAAAAAAAAAAAAAAAAAAAAAAAAAAAAAAAAAAAAAAAAAAAAAAAAAAAAAAAAAAAAAAAAAAAAAAAAAAAAAAAAAAAAAAAAAAAAAAAAAAAAAAAAAAAAAAAAAAAAAAAAAAAAAAAAAAAAAAAAAAAAAAAAAAAAAAAAAAAAAAAAAAAAAAAAAAAAAAAAAAAAAAAAAAAAAAAAAAAAAAAAAAAAAAAAAAAAAAAAAAAAAAAAAAAAAAAAAAAAAAAAAAAAAAAAAAAAAAAAAAAAAAAAAAAAAAAAAAAAAAAAAAAAAAAAAAAAAAAAAAAAAAAAAAAAAAAAAAAAAAAAAAAAAAAAAAAAAAAAAAAAAAAAAAAAAAAAAAAAAAAAAAAAAAAAAAAAAAAAAAAAAAAAAAAAAAAAAAAAAAAAAAAAAAAAAAAAAAAAAAAAAAAAAAAAAAAAAAAAAAAAAAAAAAAAAAAAAAAAAAAAAAAAAAAAAAAAAAAAAAAAAAAAAAAAAAAAAAAAAAAAAAAAAAAAAAAAAAAAAAAAAAAAAAAAAAAAAAAAAAAAAAAAAAAAAAAAAAAAAAAAAAAAAAAAAAAAAAAAAAAAAAAAAAAAAAAAAAAAAAAAAAAAAAAAAAAAAAAAAAAAAAAAAAAAAAAAAAAAAAAAAAAAAAAAAAAAAAAAAAAAAAAAAAAAAAAAAAAAAAAAAAAAAAAAAAAAAAAAAAAAAAAAAAAAAAAAAAAAAAAAAAAAAAAAAAAAAAAAAAAAAAAAAAAAAAAAAAAAAAAAAAAAAAAAAAAAAAAAAAAAAAAAAAAAAAAAAAAAAAAAAAAAAAAAAAAAAAAAAAAAAAAAAAAAAAAAAAAAAAAAAAAAAAAAAAAAAAAAAAAAAAAAAAAAAAAAAAAAAAAAAAAAAAAAAAAAAAAAAAAAAAAAAAAAAAAAAAAAAAAAAAAAAAAAAAAAAAAAAAAAAAAAAAAAAAAAAAAAAAAAAAAAAAAAAAAAAAAAAAAAAAAAAAAAAAAAAAAAAAAAAAAAAAAAAAAAAAAAAAAAAAAAAAAAAAAAAAAAAAAAAAAAAAAAAAAAAAAAAAAAAAAAAAAAAAAAAAAAAAAAAAAAAAAAAAAAAAAAAAAAAAAAAAAAAAAAAAAAAAAAAAAAAAAAAAAAAAAAAAAAAAAAAAAAAAAAAAAAAAAAAAAAAAAAAAAAAAAAAAAAAAAAAAAAAAAAAAAAAAAAAAAAAAAAAAAAAAAAAAAAAAAAAAAAAAAAAAAAAAAAAAAAAAAAAAAAAAAAAAAAAAAAAAAAAAAAAAAAAAAAAAAAAAAAAAAAAAAAAAAAAAAAAAAAAAAAAAAAAAAAAAAAAAAAAAAAAAAAAAAAAAAAAAAAAAAAAAAAAAAAAAAAAAAAAAAAAAAAAAAAAAAAAAAAAAAAAAAAAAAAAAAAAAAAAAAAAAAAAAAAAAAAAAAAAAAAAAAAAAAAAAAAAAAAAAAAAAAAAAAAAAAAAAAAAAAAAAAAAAAAAAAAAAAAAAAAAAAAAAAAAAAAAAAAAAAAAAAAAAAAAAAAAAAAAAAAAAAAAAAAAAAAAAAAAAAAAAAAAAAAAAAAAAAAAAAAAAAAAAAAAAAAAAAAAAAAAAAAAAAAAAAAAAAAAAAAAAAAAAAAAAAAAAAAAAAAAAAAAAAAAAAAAAAAAAAAAAAAAAAAAAAAAAAAAAAAAAAAAAAAAAAAAAAAAAAAAAAAAAAAAAAAAAAAAAAAAAAAAAAAAAAAAAAAAAAAAAAAAAAAAAAAAAAAAAAAAAAAAAAAAAAAAAAAAAAAAAAAAAAAAAAAAAAAAAAAAAAAAAAAAAAAAAAAAAAAAAAAAAAAAAAAAAAAAAAAAAAAAAAAAAAAAAAAAAAAAAAAAAAAAAAAAAAAAAAAAAAAAAAAAAAAAAAAAAAAAAAAAAAAAAAAAAAAAAAAAAAAAAAAAAAAAAAAAAAAAAAAAAAAAAAAAAAAAAAAAAAAAAAAAAAAAAAAAAAAAAAAAAAAAAAAAAAAAAAAAAAAAAAAAAAAAAAAAAAAAAAAAAAAAAAAAAAAAAAAAAAAAAAAAAAAAAAAAAAAAAAAAAAAAAAAAAAAAAAAAAAAAAAAAAAAAAAAAAAAAAAAAAAAAAAAAAAAAAAAAAAAAAAAAAAAAAAAAAAAAAAAAAAAAAAAAAAAAAAAAAAAAAAAAAAAAAAAAAAAAAAAAAAAAAAAAAAAAAAAAAAAAAAAAAAAAAAAAAAAAAAAAAAAAAAAAAAAAAAAAAAAAAAAAAAAAAAAAAAAAAAAAAAAAAAAAAAAAAAAAAAAAAAAAAAAAAAAAAAAAAAAAAAAAAAAAAAAAAAAAAAAAAAAAAAAAAAAAAAAAAAAAAAAAAAAAAAAAAAAAAAAAAAAAAAAAAAAAAAAAAAAAAAAAAAAAAAAAAAAAAAAAAAAAAAAAAAAAAAAAAAAAAAAAAAAAAAAAAAAAAAAAAAAAAAAAAAAAAAAAAAAAAAAAAAAAAAAAAAAAAAAAAAAAAAAAAAAAAAAAAAAAAAAAAAAAAAAAAAAAAAAAAAAAAAAAAAAAAAAAAAAAAAAAAAAAAAAAAAAAAAAAAAAAAAAAAAAAAAAAAAAAAAAAAAAAAAAAAAAAAAAAAAAAAAAAAAAAAAAAAAAAAAAAAAAAAAAAAAAAAAAAAAAAAAAAAAAAAAAAAAAAAAAAAAAAAAAAAAAAAAAAAAAAAAAAAAAAAAAAAAAAAAAAAAAAAAAAAAAPZYQMb4ZN+D5lawdngd6rYmUV+rVPgA94Ug0bo3UuplHoPZi4ShK5t/Qp14ULfxur3PAzrOIDEbvdzk7uHYxWEl6BA=</c2pa:manifest></metadata><title id="t">Approved backgrounds for the logo</title><rect width="660" height="460" fill="#FFFFFF"/><rect x="0" y="0" width="220" height="230" fill="#F0E9DC"/><svg x="45" y="28" width="130" height="130" viewBox="0 0 512 512" ><defs><clipPath id="u6-disc-clip"><circle cx="256" cy="256" r="232"/></clipPath><clipPath id="u6-body-clip"><path d="M200 38 C244 92 254 170 246 258 C243 298 234 322 226 332 H174 C166 322 157 298 154 258 C146 170 156 92 200 38 Z"/></clipPath></defs><circle cx="256" cy="256" r="232" fill="#F2CC8F"/><g clip-path="url(#u6-disc-clip)"><rect x="0" y="300" width="512" height="18" fill="#E07A5F"/><rect x="0" y="318" width="512" height="18" fill="#C44E33"/><rect x="0" y="336" width="512" height="18" fill="#46607A"/></g><g clip-path="url(#u6-disc-clip)"><g transform="translate(256 268) scale(1.02) translate(-200 -242)"><g fill="#F2CC8F" stroke="#F2CC8F" stroke-width="14" stroke-linejoin="round"><path d="M200 38 C244 92 254 170 246 258 C243 298 234 322 226 332 H174 C166 322 157 298 154 258 C146 170 156 92 200 38 Z"/><path d="M160 232 C118 256 100 310 104 368 C118 342 138 330 164 322 Z"/><path d="M240 232 C282 256 300 310 296 368 C282 342 262 330 236 322 Z"/><path d="M176 330 H224 L229 346 H171 Z"/><path d="M176 346 C166 388 188 412 200 446 C212 412 234 388 224 346 Z"/></g><g><path d="M176 346 C166 388 188 412 200 446 C212 412 234 388 224 346 Z" fill="#E07A5F"/><path d="M189 346 C185 372 195 388 200 408 C205 388 215 372 211 346 Z" fill="#F2CC8F"/></g><g><path d="M160 232 C118 256 100 310 104 368 C118 342 138 330 164 322 Z" fill="#C44E33"/><path d="M240 232 C282 256 300 310 296 368 C282 342 262 330 236 322 Z" fill="#C44E33"/></g><path d="M176 330 H224 L229 346 H171 Z" fill="#3D405B"/><path d="M200 38 C244 92 254 170 246 258 C243 298 234 322 226 332 H174 C166 322 157 298 154 258 C146 170 156 92 200 38 Z" fill="#46607A"/><g clip-path="url(#u6-body-clip)"><rect x="200" y="0" width="70" height="340" fill="#000" opacity=".16"/><g><rect x="140" y="110" width="120" height="9" fill="#F2CC8F"/><rect x="140" y="296" width="120" height="7" fill="#F2CC8F"/></g></g><path d="M197 252 H203 L205 352 H195 Z" fill="#E07A5F"/><g><circle cx="200" cy="205" r="35" fill="#F0E9DC" stroke="#4E8A6D" stroke-width="6"/><path d="M207 225 V185 L185 213 H216" fill="none" stroke="#4E8A6D" stroke-width="8.5" stroke-linecap="round" stroke-linejoin="round"/></g></g></g><circle cx="256" cy="256" r="240" fill="none" stroke="#46607A" stroke-width="16"/></svg><text x="110.0" y="202" font-size="13" text-anchor="middle" fill="#3D405B" font-weight="400">Light logo on ground</text><rect x="220" y="0" width="220" height="230" fill="#FFFFFF"/><svg x="265" y="28" width="130" height="130" viewBox="0 0 512 512" ><defs><clipPath id="u7-disc-clip"><circle cx="256" cy="256" r="232"/></clipPath><clipPath id="u7-body-clip"><path d="M200 38 C244 92 254 170 246 258 C243 298 234 322 226 332 H174 C166 322 157 298 154 258 C146 170 156 92 200 38 Z"/></clipPath></defs><circle cx="256" cy="256" r="232" fill="#F2CC8F"/><g clip-path="url(#u7-disc-clip)"><rect x="0" y="300" width="512" height="18" fill="#E07A5F"/><rect x="0" y="318" width="512" height="18" fill="#C44E33"/><rect x="0" y="336" width="512" height="18" fill="#46607A"/></g><g clip-path="url(#u7-disc-clip)"><g transform="translate(256 268) scale(1.02) translate(-200 -242)"><g fill="#F2CC8F" stroke="#F2CC8F" stroke-width="14" stroke-linejoin="round"><path d="M200 38 C244 92 254 170 246 258 C243 298 234 322 226 332 H174 C166 322 157 298 154 258 C146 170 156 92 200 38 Z"/><path d="M160 232 C118 256 100 310 104 368 C118 342 138 330 164 322 Z"/><path d="M240 232 C282 256 300 310 296 368 C282 342 262 330 236 322 Z"/><path d="M176 330 H224 L229 346 H171 Z"/><path d="M176 346 C166 388 188 412 200 446 C212 412 234 388 224 346 Z"/></g><g><path d="M176 346 C166 388 188 412 200 446 C212 412 234 388 224 346 Z" fill="#E07A5F"/><path d="M189 346 C185 372 195 388 200 408 C205 388 215 372 211 346 Z" fill="#F2CC8F"/></g><g><path d="M160 232 C118 256 100 310 104 368 C118 342 138 330 164 322 Z" fill="#C44E33"/><path d="M240 232 C282 256 300 310 296 368 C282 342 262 330 236 322 Z" fill="#C44E33"/></g><path d="M176 330 H224 L229 346 H171 Z" fill="#3D405B"/><path d="M200 38 C244 92 254 170 246 258 C243 298 234 322 226 332 H174 C166 322 157 298 154 258 C146 170 156 92 200 38 Z" fill="#46607A"/><g clip-path="url(#u7-body-clip)"><rect x="200" y="0" width="70" height="340" fill="#000" opacity=".16"/><g><rect x="140" y="110" width="120" height="9" fill="#F2CC8F"/><rect x="140" y="296" width="120" height="7" fill="#F2CC8F"/></g></g><path d="M197 252 H203 L205 352 H195 Z" fill="#E07A5F"/><g><circle cx="200" cy="205" r="35" fill="#F0E9DC" stroke="#4E8A6D" stroke-width="6"/><path d="M207 225 V185 L185 213 H216" fill="none" stroke="#4E8A6D" stroke-width="8.5" stroke-linecap="round" stroke-linejoin="round"/></g></g></g><circle cx="256" cy="256" r="240" fill="none" stroke="#46607A" stroke-width="16"/></svg><text x="330.0" y="202" font-size="13" text-anchor="middle" fill="#3D405B" font-weight="400">Light logo on white</text><rect x="440" y="0" width="220" height="230" fill="#1F2430"/><svg x="485" y="28" width="130" height="130" viewBox="0 0 512 512" ><defs><clipPath id="u8-disc-clip"><circle cx="256" cy="256" r="232"/></clipPath><clipPath id="u8-body-clip"><path d="M200 38 C244 92 254 170 246 258 C243 298 234 322 226 332 H174 C166 322 157 298 154 258 C146 170 156 92 200 38 Z"/></clipPath></defs><circle cx="256" cy="256" r="232" fill="#E8C07D"/><g clip-path="url(#u8-disc-clip)"><rect x="0" y="300" width="512" height="18" fill="#F08A6C"/><rect x="0" y="318" width="512" height="18" fill="#E0694C"/><rect x="0" y="336" width="512" height="18" fill="#7E9CBC"/></g><g clip-path="url(#u8-disc-clip)"><g transform="translate(256 268) scale(1.02) translate(-200 -242)"><g fill="#E8C07D" stroke="#E8C07D" stroke-width="14" stroke-linejoin="round"><path d="M200 38 C244 92 254 170 246 258 C243 298 234 322 226 332 H174 C166 322 157 298 154 258 C146 170 156 92 200 38 Z"/><path d="M160 232 C118 256 100 310 104 368 C118 342 138 330 164 322 Z"/><path d="M240 232 C282 256 300 310 296 368 C282 342 262 330 236 322 Z"/><path d="M176 330 H224 L229 346 H171 Z"/><path d="M176 346 C166 388 188 412 200 446 C212 412 234 388 224 346 Z"/></g><g><path d="M176 346 C166 388 188 412 200 446 C212 412 234 388 224 346 Z" fill="#F08A6C"/><path d="M189 346 C185 372 195 388 200 408 C205 388 215 372 211 346 Z" fill="#E8C07D"/></g><g><path d="M160 232 C118 256 100 310 104 368 C118 342 138 330 164 322 Z" fill="#E0694C"/><path d="M240 232 C282 256 300 310 296 368 C282 342 262 330 236 322 Z" fill="#E0694C"/></g><path d="M176 330 H224 L229 346 H171 Z" fill="#3D4558"/><path d="M200 38 C244 92 254 170 246 258 C243 298 234 322 226 332 H174 C166 322 157 298 154 258 C146 170 156 92 200 38 Z" fill="#7E9CBC"/><g clip-path="url(#u8-body-clip)"><rect x="200" y="0" width="70" height="340" fill="#000" opacity=".16"/><g><rect x="140" y="110" width="120" height="9" fill="#E8C07D"/><rect x="140" y="296" width="120" height="7" fill="#E8C07D"/></g></g><path d="M197 252 H203 L205 352 H195 Z" fill="#F08A6C"/><g><circle cx="200" cy="205" r="35" fill="#1F2430" stroke="#7FC29F" stroke-width="6"/><path d="M207 225 V185 L185 213 H216" fill="none" stroke="#7FC29F" stroke-width="8.5" stroke-linecap="round" stroke-linejoin="round"/></g></g></g><circle cx="256" cy="256" r="240" fill="none" stroke="#7E9CBC" stroke-width="16"/></svg><text x="550.0" y="202" font-size="13" text-anchor="middle" fill="#E6E1D6" font-weight="400">Dark logo on dark ground</text><rect x="0" y="230" width="220" height="230" fill="#46607A"/><svg x="45" y="258" width="130" height="130" viewBox="0 0 512 512" ><defs><clipPath id="u9-disc-clip"><circle cx="256" cy="256" r="232"/></clipPath><clipPath id="u9-body-clip"><path d="M200 38 C244 92 254 170 246 258 C243 298 234 322 226 332 H174 C166 322 157 298 154 258 C146 170 156 92 200 38 Z"/></clipPath><mask id="u9-knock" maskUnits="userSpaceOnUse" x="0" y="0" width="512" height="512"><rect width="512" height="512" fill="#fff"/><g transform="translate(256 268) scale(1.02) translate(-200 -242)" fill="#000" stroke="#000" stroke-width="16" stroke-linejoin="round"><path d="M200 38 C244 92 254 170 246 258 C243 298 234 322 226 332 H174 C166 322 157 298 154 258 C146 170 156 92 200 38 Z"/><path d="M160 232 C118 256 100 310 104 368 C118 342 138 330 164 322 Z"/><path d="M240 232 C282 256 300 310 296 368 C282 342 262 330 236 322 Z"/><path d="M176 330 H224 L229 346 H171 Z"/><path d="M176 346 C166 388 188 412 200 446 C212 412 234 388 224 346 Z"/></g></mask><mask id="u9-badge-knock" maskUnits="userSpaceOnUse" x="0" y="0" width="512" height="512"><rect width="512" height="512" fill="#fff"/><g transform="translate(256 268) scale(1.02) translate(-200 -242)" fill="#000"><circle cx="200" cy="205" r="35"/><g clip-path="url(#u9-body-clip)"><rect x="140" y="110" width="120" height="8"/><rect x="140" y="296" width="120" height="7"/></g></g></mask></defs><g mask="url(#u9-knock)"><g clip-path="url(#u9-disc-clip)"><rect x="0" y="302" width="512" height="10" fill="#FFFFFF"/><rect x="0" y="320" width="512" height="10" fill="#FFFFFF"/><rect x="0" y="338" width="512" height="10" fill="#FFFFFF"/></g></g><g mask="url(#u9-badge-knock)"><g transform="translate(256 268) scale(1.02) translate(-200 -242)" fill="#FFFFFF"><path d="M200 38 C244 92 254 170 246 258 C243 298 234 322 226 332 H174 C166 322 157 298 154 258 C146 170 156 92 200 38 Z"/><path d="M160 232 C118 256 100 310 104 368 C118 342 138 330 164 322 Z"/><path d="M240 232 C282 256 300 310 296 368 C282 342 262 330 236 322 Z"/><path d="M176 330 H224 L229 346 H171 Z"/><path d="M176 346 C166 388 188 412 200 446 C212 412 234 388 224 346 Z"/></g></g><g transform="translate(256 268) scale(1.02) translate(-200 -242)"><circle cx="200" cy="205" r="29" fill="none" stroke="#FFFFFF" stroke-width="5"/><path d="M207 225 V185 L185 213 H216" fill="none" stroke="#FFFFFF" stroke-width="8" stroke-linecap="round" stroke-linejoin="round" transform="translate(200 205) scale(.8) translate(-200 -205)"/></g><circle cx="256" cy="256" r="240" fill="none" stroke="#FFFFFF" stroke-width="16"/></svg><text x="110.0" y="432" font-size="13" text-anchor="middle" fill="#FFFFFF" font-weight="400">Reversed on brand slate</text><rect x="220" y="230" width="220" height="230" fill="#C44E33"/><svg x="265" y="258" width="130" height="130" viewBox="0 0 512 512" ><defs><clipPath id="u10-disc-clip"><circle cx="256" cy="256" r="232"/></clipPath><clipPath id="u10-body-clip"><path d="M200 38 C244 92 254 170 246 258 C243 298 234 322 226 332 H174 C166 322 157 298 154 258 C146 170 156 92 200 38 Z"/></clipPath><mask id="u10-knock" maskUnits="userSpaceOnUse" x="0" y="0" width="512" height="512"><rect width="512" height="512" fill="#fff"/><g transform="translate(256 268) scale(1.02) translate(-200 -242)" fill="#000" stroke="#000" stroke-width="16" stroke-linejoin="round"><path d="M200 38 C244 92 254 170 246 258 C243 298 234 322 226 332 H174 C166 322 157 298 154 258 C146 170 156 92 200 38 Z"/><path d="M160 232 C118 256 100 310 104 368 C118 342 138 330 164 322 Z"/><path d="M240 232 C282 256 300 310 296 368 C282 342 262 330 236 322 Z"/><path d="M176 330 H224 L229 346 H171 Z"/><path d="M176 346 C166 388 188 412 200 446 C212 412 234 388 224 346 Z"/></g></mask><mask id="u10-badge-knock" maskUnits="userSpaceOnUse" x="0" y="0" width="512" height="512"><rect width="512" height="512" fill="#fff"/><g transform="translate(256 268) scale(1.02) translate(-200 -242)" fill="#000"><circle cx="200" cy="205" r="35"/><g clip-path="url(#u10-body-clip)"><rect x="140" y="110" width="120" height="8"/><rect x="140" y="296" width="120" height="7"/></g></g></mask></defs><g mask="url(#u10-knock)"><g clip-path="url(#u10-disc-clip)"><rect x="0" y="302" width="512" height="10" fill="#FFFFFF"/><rect x="0" y="320" width="512" height="10" fill="#FFFFFF"/><rect x="0" y="338" width="512" height="10" fill="#FFFFFF"/></g></g><g mask="url(#u10-badge-knock)"><g transform="translate(256 268) scale(1.02) translate(-200 -242)" fill="#FFFFFF"><path d="M200 38 C244 92 254 170 246 258 C243 298 234 322 226 332 H174 C166 322 157 298 154 258 C146 170 156 92 200 38 Z"/><path d="M160 232 C118 256 100 310 104 368 C118 342 138 330 164 322 Z"/><path d="M240 232 C282 256 300 310 296 368 C282 342 262 330 236 322 Z"/><path d="M176 330 H224 L229 346 H171 Z"/><path d="M176 346 C166 388 188 412 200 446 C212 412 234 388 224 346 Z"/></g></g><g transform="translate(256 268) scale(1.02) translate(-200 -242)"><circle cx="200" cy="205" r="29" fill="none" stroke="#FFFFFF" stroke-width="5"/><path d="M207 225 V185 L185 213 H216" fill="none" stroke="#FFFFFF" stroke-width="8" stroke-linecap="round" stroke-linejoin="round" transform="translate(200 205) scale(.8) translate(-200 -205)"/></g><circle cx="256" cy="256" r="240" fill="none" stroke="#FFFFFF" stroke-width="16"/></svg><text x="330.0" y="432" font-size="13" text-anchor="middle" fill="#FFFFFF" font-weight="400">Reversed on coral</text><rect x="440" y="230" width="220" height="230" fill="#F2CC8F"/><svg x="485" y="258" width="130" height="130" viewBox="0 0 512 512" ><defs><clipPath id="u11-disc-clip"><circle cx="256" cy="256" r="232"/></clipPath><clipPath id="u11-body-clip"><path d="M200 38 C244 92 254 170 246 258 C243 298 234 322 226 332 H174 C166 322 157 298 154 258 C146 170 156 92 200 38 Z"/></clipPath><mask id="u11-knock" maskUnits="userSpaceOnUse" x="0" y="0" width="512" height="512"><rect width="512" height="512" fill="#fff"/><g transform="translate(256 268) scale(1.02) translate(-200 -242)" fill="#000" stroke="#000" stroke-width="16" stroke-linejoin="round"><path d="M200 38 C244 92 254 170 246 258 C243 298 234 322 226 332 H174 C166 322 157 298 154 258 C146 170 156 92 200 38 Z"/><path d="M160 232 C118 256 100 310 104 368 C118 342 138 330 164 322 Z"/><path d="M240 232 C282 256 300 310 296 368 C282 342 262 330 236 322 Z"/><path d="M176 330 H224 L229 346 H171 Z"/><path d="M176 346 C166 388 188 412 200 446 C212 412 234 388 224 346 Z"/></g></mask><mask id="u11-badge-knock" maskUnits="userSpaceOnUse" x="0" y="0" width="512" height="512"><rect width="512" height="512" fill="#fff"/><g transform="translate(256 268) scale(1.02) translate(-200 -242)" fill="#000"><circle cx="200" cy="205" r="35"/><g clip-path="url(#u11-body-clip)"><rect x="140" y="110" width="120" height="8"/><rect x="140" y="296" width="120" height="7"/></g></g></mask></defs><g mask="url(#u11-knock)"><g clip-path="url(#u11-disc-clip)"><rect x="0" y="302" width="512" height="10" fill="#3D405B"/><rect x="0" y="320" width="512" height="10" fill="#3D405B"/><rect x="0" y="338" width="512" height="10" fill="#3D405B"/></g></g><g mask="url(#u11-badge-knock)"><g transform="translate(256 268) scale(1.02) translate(-200 -242)" fill="#3D405B"><path d="M200 38 C244 92 254 170 246 258 C243 298 234 322 226 332 H174 C166 322 157 298 154 258 C146 170 156 92 200 38 Z"/><path d="M160 232 C118 256 100 310 104 368 C118 342 138 330 164 322 Z"/><path d="M240 232 C282 256 300 310 296 368 C282 342 262 330 236 322 Z"/><path d="M176 330 H224 L229 346 H171 Z"/><path d="M176 346 C166 388 188 412 200 446 C212 412 234 388 224 346 Z"/></g></g><g transform="translate(256 268) scale(1.02) translate(-200 -242)"><circle cx="200" cy="205" r="29" fill="none" stroke="#3D405B" stroke-width="5"/><path d="M207 225 V185 L185 213 H216" fill="none" stroke="#3D405B" stroke-width="8" stroke-linecap="round" stroke-linejoin="round" transform="translate(200 205) scale(.8) translate(-200 -205)"/></g><circle cx="256" cy="256" r="240" fill="none" stroke="#3D405B" stroke-width="16"/></svg><text x="550.0" y="432" font-size="13" text-anchor="middle" fill="#3D405B" font-weight="400">Ink on sun</text></svg>